{"glyphs":{"1":{"ha":1157,"x_min":0,"x_max":0,"o":""},"2":{"ha":1157,"x_min":0,"x_max":0,"o":""},"\u0000":{"ha":0,"x_min":0,"x_max":0,"o":""},"\r":{"ha":694,"x_min":0,"x_max":0,"o":""}," ":{"ha":278,"x_min":0,"x_max":0,"o":""},"e":{"ha":517,"x_min":0,"x_max":0,"o":"m 167 179 l 325 85 l 385 121 l 385 103 l 214 0 l 43 101 l 0 75 l 0 93 l 36 114 l 36 554 l 288 669 l 447 439 l 167 274 m 167 614 l 167 290 l 326 386 "},"f":{"ha":426,"x_min":0,"x_max":0,"o":"m 315 85 l 357 108 l 357 90 l 204 -1 l 97 63 l 47 29 l 47 49 l 88 76 l 88 567 l 0 567 l 0 582 l 88 582 l 88 813 l 47 840 l 47 858 l 94 826 l 217 899 l 313 842 l 313 694 l 217 750 l 217 582 l 313 582 l 313 567 l 217 567 l 217 143 "},"g":{"ha":575,"x_min":0,"x_max":0,"o":"m 464 136 b 315 -122 464 -7 494 -122 b 64 -178 197 -122 68 -83 b 86 -117 60 -154 68 -135 b 365 -54 119 -87 193 -54 b 338 149 481 -54 451 119 l 218 0 l 49 101 l 0 67 l 0 86 l 42 114 l 42 535 l 267 669 l 454 557 l 506 592 l 506 574 l 464 544 m 288 110 l 335 168 l 335 479 l 171 578 l 171 181 "},"h":{"ha":551,"x_min":0,"x_max":0,"o":"m 442 585 l 442 182 b 193 -110 442 126 444 -36 b 243 -69 211 -97 228 -85 b 304 22 269 -43 294 -11 b 311 203 310 46 311 103 l 311 521 l 214 578 l 149 539 l 149 128 l 168 103 l 85 0 l 0 104 l 18 128 l 18 821 l 149 899 l 149 557 l 324 663 l 433 599 l 482 632 l 482 613 "},"i":{"ha":347,"x_min":0,"x_max":0,"o":"m 200 881 l 114 744 l 89 744 l 121 881 m 232 85 l 278 113 l 278 94 l 121 0 l 49 43 l 0 10 l 0 29 l 42 57 l 42 529 l 28 576 l 104 669 l 179 576 l 169 529 l 169 122 "},"j":{"ha":397,"x_min":0,"x_max":0,"o":"m 171 744 l 142 744 l 174 879 l 256 879 m 328 632 l 328 613 l 286 585 b 243 529 269 569 256 550 b 200 368 221 492 200 439 b 215 215 200 329 204 278 b 225 122 222 172 225 143 b 197 1 225 76 215 36 b 114 -97 179 -35 151 -68 b 15 -154 93 -115 60 -133 l 44 -112 b 88 -46 60 -89 78 -62 b 114 54 106 -14 114 19 b 97 167 114 78 108 115 b 72 357 81 247 72 311 b 81 449 72 390 75 421 l 99 507 l 113 546 l 46 585 l 0 558 l 0 576 l 158 669 l 278 599 "},"k":{"ha":640,"x_min":0,"x_max":0,"o":"m 314 406 b 571 10 494 338 379 107 b 513 0 571 10 533 0 b 232 321 307 0 358 321 l 171 258 l 171 147 l 276 85 l 313 104 l 313 86 l 165 0 l 49 68 l 0 35 l 0 54 l 42 82 l 42 806 l 171 899 l 171 290 l 400 526 l 400 553 l 424 578 l 424 519 l 314 406 "},"l":{"ha":347,"x_min":0,"x_max":0,"o":"m 232 83 l 278 111 l 278 93 l 121 0 l 49 42 l 0 8 l 0 28 l 42 56 l 42 806 l 169 899 l 169 121 "},"m":{"ha":854,"x_min":0,"x_max":0,"o":"m 743 592 l 743 139 l 767 110 l 678 0 l 590 110 l 614 139 l 614 643 l 460 553 l 460 139 l 483 110 l 394 0 l 306 110 l 329 139 l 329 635 l 176 543 l 176 139 l 200 110 l 111 0 l 22 110 l 46 139 l 46 472 l 46 626 l 0 599 l 0 617 l 89 669 l 176 618 l 176 561 l 360 669 l 460 610 l 460 571 l 626 669 l 735 606 l 785 638 l 785 619 "},"n":{"ha":571,"x_min":0,"x_max":0,"o":"m 501 619 l 460 592 l 460 139 l 483 110 l 394 0 l 307 110 l 331 139 l 331 643 l 176 553 l 176 139 l 200 110 l 111 0 l 22 110 l 46 139 l 46 635 l 0 607 l 0 625 l 76 669 l 176 610 l 176 571 l 343 669 l 451 606 l 501 638 "},"o":{"ha":569,"x_min":0,"x_max":0,"o":"m 451 574 l 500 606 l 500 588 l 458 560 l 458 154 l 329 76 l 329 499 l 171 593 l 171 171 l 329 76 l 203 0 l 47 92 l 0 60 l 0 79 l 42 107 l 42 517 l 301 669 l 451 574 "},"p":{"ha":644,"x_min":0,"x_max":0,"o":"m 575 607 l 533 579 l 533 133 l 340 0 b 238 76 325 10 294 44 l 238 -85 l 108 -178 l 108 115 b 0 111 76 119 40 118 b 31 125 10 115 19 121 b 108 151 51 135 76 142 l 108 549 l 46 585 l 0 558 l 0 576 l 158 669 l 238 622 l 238 575 l 397 669 l 526 593 l 575 625 m 238 165 b 404 47 306 161 371 132 l 404 514 l 285 585 l 238 557 "},"q":{"ha":574,"x_min":0,"x_max":0,"o":"m 464 526 l 464 113 b 215 -178 464 57 467 -104 b 265 -137 233 -165 250 -153 b 326 -47 292 -114 317 -81 b 333 100 332 -26 333 22 l 165 0 l 49 69 l 0 36 l 0 56 l 42 83 l 42 553 l 238 669 l 456 540 l 504 574 l 504 556 m 333 463 l 171 558 l 171 149 l 278 86 l 333 118 l 333 135 "},"r":{"ha":607,"x_min":0,"x_max":0,"o":"m 299 586 l 269 568 l 269 139 l 360 85 l 446 136 l 446 118 l 247 0 l 149 61 l 100 28 l 100 47 l 142 75 l 142 528 l 46 585 l 10 564 l 0 576 l 157 669 l 269 604 l 269 586 l 410 669 l 538 594 l 521 585 l 410 519 "},"s":{"ha":600,"x_min":0,"x_max":0,"o":"m 531 378 l 489 350 l 489 117 l 294 0 b 0 15 183 49 33 26 l 174 244 l 44 321 l 0 292 l 0 310 l 36 335 l 36 565 l 211 669 b 297 640 238 658 265 649 b 481 628 349 625 415 615 l 344 444 l 481 364 l 531 397 m 167 399 l 253 349 l 443 603 b 167 640 333 540 247 575 m 360 285 l 265 340 l 40 43 b 360 42 107 83 249 142 "},"t":{"ha":397,"x_min":0,"x_max":0,"o":"m 282 83 l 328 111 l 328 93 l 171 0 l 99 42 l 50 8 l 50 28 l 90 56 l 90 567 l 0 567 l 0 582 l 90 582 l 90 806 l 219 899 l 219 582 l 313 582 l 313 567 l 219 567 l 219 121 "},"u":{"ha":603,"x_min":0,"x_max":0,"o":"m 0 50 l 42 78 l 42 531 l 17 560 l 106 668 l 194 560 l 171 531 l 171 25 l 325 117 l 325 531 l 300 560 l 389 668 l 478 560 l 454 531 l 454 35 l 533 82 l 533 64 l 425 0 l 325 58 l 325 99 l 158 0 l 49 64 l 0 31 "},"v":{"ha":599,"x_min":0,"x_max":0,"o":"m 529 643 l 488 615 l 488 151 l 233 0 l 72 97 l 24 64 l 24 83 l 64 111 l 64 503 b 60 538 64 518 63 529 b 36 576 58 543 51 556 b 8 625 21 597 13 613 b 0 672 3 639 0 654 b 29 761 0 704 10 735 b 143 844 50 788 88 815 b 125 660 100 815 26 729 b 183 571 157 636 174 600 b 193 517 188 553 192 535 l 194 174 l 358 76 l 358 550 l 296 586 l 250 560 l 250 578 l 408 671 l 479 629 l 529 663 "},"w":{"ha":892,"x_min":0,"x_max":0,"o":"m 850 78 l 719 0 l 632 53 l 632 110 l 449 0 l 349 60 l 349 100 l 182 0 l 74 65 l 24 32 l 24 51 l 65 79 l 64 493 b 63 510 63 497 63 503 b 60 532 61 519 61 528 b 36 571 58 540 50 553 b 8 619 21 589 13 604 b 0 668 3 633 0 650 b 29 756 0 701 10 731 b 143 840 50 782 88 810 b 125 654 100 808 25 725 b 183 567 157 631 174 596 b 194 513 190 549 193 531 l 194 26 l 349 118 l 349 532 l 325 560 l 414 669 l 501 560 l 478 532 l 478 36 l 632 128 l 632 532 l 608 560 l 697 669 l 785 560 l 761 532 l 761 197 l 761 43 l 850 96 "},"x":{"ha":660,"x_min":0,"x_max":0,"o":"m 478 126 b 564 24 518 65 546 39 b 590 11 574 15 582 11 b 360 64 538 0 411 -21 l 253 264 l 128 0 l 110 0 l 243 281 l 99 554 b 22 650 61 614 38 639 b 0 657 14 657 7 658 b 224 606 50 672 168 686 l 315 432 l 428 669 l 444 669 l 324 415 "},"y":{"ha":513,"x_min":0,"x_max":0,"o":"m 140 -79 b 419 -142 311 -79 386 -112 b 440 -203 438 -160 444 -179 b 189 -147 433 -110 310 -147 b 40 117 8 -147 40 -29 l 40 624 l 0 599 l 0 617 l 89 669 l 169 621 l 169 101 l 311 17 l 311 624 l 269 599 l 269 617 l 358 669 l 440 621 l 440 89 l 311 0 l 169 85 b 140 -79 28 85 14 -79 "},"z":{"ha":431,"x_min":0,"x_max":0,"o":"m 0 560 l 185 669 l 361 564 l 140 432 b 358 218 350 343 358 263 b 338 142 358 190 351 165 b 275 74 322 117 301 94 b 168 13 254 58 219 39 b 72 -49 114 -17 82 -37 b 54 -92 60 -61 54 -75 b 94 -156 54 -119 74 -140 b 135 -178 104 -164 118 -171 b 83 -164 114 -176 99 -171 b 32 -89 57 -151 32 -132 b 50 -32 32 -68 38 -50 b 124 40 58 -17 83 7 b 197 110 163 69 186 93 b 221 190 213 136 221 164 b 110 313 221 235 165 279 b 0 368 78 333 40 350 l 219 497 l 72 585 l 0 542 "},"b":{"ha":560,"x_min":0,"x_max":0,"o":"m 490 610 l 490 592 l 457 568 l 457 126 l 244 0 l 40 122 l 0 94 l 0 113 l 33 136 l 33 800 l 163 900 l 163 515 l 363 633 l 449 582 m 326 101 l 326 503 l 251 549 l 163 497 l 163 200 "},"c":{"ha":454,"x_min":0,"x_max":0,"o":"m 167 179 l 325 83 l 385 119 l 385 101 l 214 0 l 43 100 l 0 74 l 0 92 l 36 113 l 36 553 l 288 668 l 385 526 l 264 474 l 167 613 "},"a":{"ha":528,"x_min":0,"x_max":0,"o":"m 425 544 l 425 49 l 458 68 l 458 50 l 378 1 l 296 50 l 296 114 l 107 1 b 53 42 88 11 69 25 b 0 164 26 68 0 108 b 63 354 0 236 31 304 b 126 438 81 383 103 411 l 296 338 l 296 478 l 114 586 l 63 556 l 63 574 l 226 671 l 417 557 l 458 586 l 458 567 m 296 319 l 135 415 b 117 339 128 392 121 365 b 125 204 110 296 107 243 b 188 121 140 167 167 142 b 226 92 201 108 214 99 l 296 132 "},"d":{"ha":532,"x_min":0,"x_max":0,"o":"m 253 0 b 156 58 215 21 185 40 b 49 124 106 88 56 119 l 0 90 l 0 110 l 42 138 l 42 499 l 332 671 l 332 899 l 463 799 l 463 128 m 169 201 l 332 103 l 332 653 l 169 556 "},"A":{"ha":1050,"x_min":0,"x_max":0,"o":"m 838 235 b 894 38 838 129 865 69 b 953 0 911 19 931 7 l 933 0 b 726 38 876 0 783 -4 b 667 182 686 68 667 117 l 667 304 l 347 304 l 236 104 b 360 75 272 101 314 92 l 233 0 b 51 35 146 46 89 46 b 0 0 29 28 13 17 b 219 106 0 35 75 113 l 332 308 b 163 471 253 360 186 431 b 126 611 139 514 126 560 b 172 779 126 671 142 728 b 311 900 203 831 249 871 b 501 944 371 929 433 944 b 801 840 601 944 708 911 b 946 950 840 897 907 935 l 921 921 b 871 846 906 903 888 878 b 838 758 856 819 842 792 m 439 504 b 328 514 390 533 354 529 b 289 478 313 506 300 493 b 481 582 289 508 321 638 l 511 640 b 397 653 460 674 424 668 b 358 617 382 644 369 632 b 554 721 358 649 392 781 l 603 810 b 469 839 558 829 514 839 b 313 801 415 839 363 826 b 203 707 265 778 229 747 b 167 589 179 667 167 628 b 343 328 167 504 239 399 m 667 404 l 667 776 l 639 793 b 626 800 635 796 631 799 l 617 804 l 401 404 m 736 49 b 800 18 754 33 778 25 b 708 182 751 40 708 79 l 708 738 l 707 738 b 682 765 703 747 694 756 l 682 182 b 736 49 682 122 700 78 "},"C":{"ha":1051,"x_min":0,"x_max":0,"o":"m 599 110 b 954 269 792 110 899 222 b 868 133 933 218 906 174 b 553 -1 806 67 706 -1 b 331 56 475 -1 401 18 b 168 219 261 94 207 149 b 128 314 150 251 138 282 b 29 276 74 319 46 299 b 8 231 19 264 13 249 b 111 396 -3 257 -18 369 b 108 438 110 411 108 422 b 111 481 108 453 110 465 b 26 438 67 481 42 458 b 8 396 17 425 11 411 b 128 564 -4 425 -19 546 b 192 696 143 613 164 656 b 492 911 236 756 306 849 b 413 857 465 896 439 878 b 276 719 368 822 314 774 b 217 514 233 658 217 588 b 321 244 217 451 249 332 l 360 276 l 360 721 l 633 950 l 907 874 l 786 774 l 547 839 l 546 115 b 599 110 564 111 582 110 m 332 232 b 432 156 360 200 393 174 b 531 119 458 144 493 129 l 532 843 l 531 843 l 489 808 l 489 363 "},"E":{"ha":1051,"x_min":0,"x_max":0,"o":"m 599 110 b 954 271 792 110 900 224 b 868 135 933 219 906 175 b 553 0 806 68 706 0 b 331 57 472 0 399 19 b 168 219 261 94 207 149 b 128 315 150 251 138 283 b 29 276 74 321 46 299 b 8 231 19 264 13 249 b 111 397 -4 258 -18 371 b 108 439 110 413 108 424 b 111 481 108 454 110 465 b 26 439 67 481 42 460 b 8 396 17 426 11 413 b 128 565 -3 425 -21 547 b 192 696 142 611 163 656 b 492 913 235 757 308 850 b 413 857 465 896 439 878 b 276 721 368 822 314 775 b 217 514 233 658 217 590 b 306 265 217 454 244 353 l 321 246 l 360 278 l 360 722 l 633 951 l 907 876 l 786 775 l 547 840 l 547 642 l 747 642 l 747 513 l 547 513 l 546 117 b 599 110 567 113 583 110 m 489 810 l 489 642 l 531 642 l 532 844 m 331 233 b 432 157 360 201 393 175 b 531 119 458 144 493 129 l 531 513 l 489 513 l 489 364 "},"T":{"ha":1051,"x_min":0,"x_max":0,"o":"m 599 111 b 954 271 792 111 899 224 b 868 135 933 219 906 175 b 553 0 806 68 706 0 b 331 57 475 0 401 19 b 168 221 261 96 207 150 b 128 315 150 253 138 283 b 29 278 74 321 46 300 b 8 232 19 265 13 250 b 111 397 -3 258 -18 371 b 108 439 110 413 108 424 b 111 482 108 454 110 467 b 26 439 67 482 42 460 b 8 397 17 426 11 413 b 128 565 -4 426 -19 547 b 192 697 143 614 164 657 b 332 835 219 736 260 786 b 260 836 306 839 283 840 b 183 819 232 835 207 829 b 150 804 174 815 163 811 l 119 785 b 72 740 100 769 85 756 b 40 699 57 725 50 711 b 29 682 35 692 31 686 b 21 669 26 676 24 672 b 17 661 17 665 18 663 b 15 658 15 660 15 660 l 15 671 b 17 686 15 678 15 682 b 19 707 17 692 18 697 b 36 763 24 722 26 742 b 75 829 46 783 57 807 b 106 864 83 842 93 853 l 114 871 b 124 879 117 872 119 875 b 135 886 128 883 131 882 l 139 890 b 144 893 143 892 144 893 b 168 907 151 899 158 903 b 179 913 172 908 175 908 b 192 918 185 914 189 917 b 199 919 196 918 194 919 b 204 922 200 921 203 922 l 218 926 l 231 931 b 238 932 235 931 236 932 b 244 933 242 932 240 933 b 251 935 246 935 249 935 b 258 936 253 936 256 936 b 265 938 263 936 261 938 b 272 939 268 938 271 938 l 279 939 b 286 940 283 939 282 940 l 293 940 b 300 942 297 940 296 942 l 307 942 l 314 942 l 321 942 l 329 942 l 343 942 l 350 942 b 357 940 353 942 356 942 l 371 940 l 385 938 b 399 936 390 938 394 936 l 413 933 l 419 932 l 426 931 b 439 929 431 931 435 929 b 464 924 449 925 454 925 b 564 900 499 917 532 910 b 660 878 597 893 628 885 b 682 872 667 876 675 876 l 704 868 l 714 865 b 725 864 718 865 722 865 b 744 861 735 863 740 861 b 817 860 772 857 796 856 b 832 863 819 860 825 861 l 846 867 b 858 874 850 871 854 869 b 871 881 861 875 865 876 b 908 914 886 890 899 903 l 913 918 l 917 922 b 922 929 918 926 921 925 l 932 940 b 938 949 936 944 936 947 l 940 951 l 940 950 b 939 947 940 949 939 949 b 938 938 939 943 939 940 b 936 932 938 936 936 933 b 935 924 936 928 935 928 b 928 903 933 919 932 913 b 918 878 924 896 922 888 b 914 871 917 876 915 875 b 911 864 913 869 913 868 b 901 850 907 860 906 854 b 874 822 894 840 885 831 b 857 808 869 817 863 813 b 836 799 850 804 843 803 b 792 783 821 792 807 786 l 767 779 l 743 776 l 693 776 b 681 778 689 776 685 778 l 668 778 l 643 781 l 594 786 l 593 111 m 217 515 b 357 208 217 442 261 297 l 407 249 l 407 674 l 357 632 l 357 653 l 407 694 l 531 797 b 442 815 499 803 471 808 l 417 819 l 403 824 l 397 825 l 392 825 l 376 829 b 276 721 339 797 304 761 b 217 515 233 660 217 589 m 432 157 b 578 111 467 142 524 117 l 579 789 l 543 794 b 536 796 542 796 539 796 l 536 781 l 536 335 l 369 197 b 432 157 390 181 411 167 "},"F":{"ha":1008,"x_min":0,"x_max":0,"o":"m 911 950 b 629 810 906 915 835 710 l 629 643 l 790 643 l 801 671 l 818 671 l 807 643 l 771 550 l 629 550 l 629 342 b 628 129 631 238 626 129 b 400 -139 624 28 571 -139 b 150 22 332 -139 264 -114 b 31 69 90 90 56 90 b 0 14 17 58 7 40 b 21 68 4 33 11 51 b 122 122 38 94 68 122 b 449 -79 243 122 304 -46 l 449 556 l 360 556 b 271 531 311 556 286 543 b 253 506 261 524 256 515 b 265 576 251 532 256 556 b 381 649 281 614 313 649 l 449 649 l 449 864 l 625 950 b 669 919 638 939 653 929 b 772 890 696 904 733 890 b 911 950 828 890 900 928 m 500 869 l 467 853 l 467 -83 b 500 -86 476 -85 489 -86 "},"B":{"ha":906,"x_min":0,"x_max":0,"o":"m 808 76 l 679 0 b 143 47 417 63 247 63 b 0 0 82 38 35 22 b 25 29 7 10 15 19 b 117 88 43 46 72 67 l 117 322 b 28 296 74 329 46 314 b 3 258 18 286 10 274 b 117 401 -4 285 1 390 l 117 485 b 28 458 74 492 46 476 b 3 421 18 449 10 436 b 117 563 -6 449 3 551 l 117 711 b 58 910 117 817 88 876 b 0 950 42 929 22 943 l 19 950 b 228 907 78 950 171 949 b 278 832 251 889 268 864 l 478 951 l 625 865 l 625 592 l 663 614 l 808 528 m 282 817 b 288 763 286 801 288 783 l 288 392 l 494 514 l 494 792 l 367 867 l 367 868 m 246 126 l 272 131 l 272 763 b 218 896 272 822 254 867 b 153 926 197 911 176 919 b 246 763 203 903 246 865 m 679 454 l 550 529 l 288 374 l 288 133 b 679 122 383 144 511 144 "},"D":{"ha":972,"x_min":0,"x_max":0,"o":"m 332 475 b 28 28 332 193 160 101 b 194 326 35 32 154 126 b 124 293 160 325 139 310 b 103 260 115 283 108 272 b 206 401 96 286 103 386 b 208 468 207 422 208 444 l 208 488 b 126 458 169 492 143 475 b 103 422 117 449 108 436 b 217 565 94 449 103 554 b 404 764 240 700 315 764 b 368 718 390 757 378 742 b 332 475 350 679 332 607 m 875 747 l 875 97 l 744 0 b 28 0 615 63 417 78 b 167 63 72 10 124 36 b 240 113 190 78 215 94 b 333 131 269 119 300 125 b 553 151 390 140 469 147 l 553 788 l 533 800 l 304 800 b 101 950 264 800 101 811 b 125 939 106 946 114 943 b 242 929 146 933 179 929 l 572 929 m 744 458 l 618 458 l 618 424 l 744 424 m 618 750 l 618 472 l 744 472 l 744 675 m 603 151 l 603 760 l 568 779 l 568 151 m 618 151 b 744 138 661 150 701 147 l 744 408 l 618 408 "},"H":{"ha":917,"x_min":0,"x_max":0,"o":"m 704 238 b 761 32 704 121 732 64 b 819 0 778 14 797 4 b 696 11 774 -3 732 1 b 574 169 635 29 574 71 l 574 347 l 289 347 l 289 96 b 361 74 311 90 335 83 l 235 -1 b 53 33 147 44 90 44 b 1 -1 31 26 14 15 b 117 94 1 25 39 72 l 117 319 b 28 293 74 326 46 311 b 3 256 18 283 10 271 b 117 399 -6 283 6 388 l 117 482 b 28 456 74 489 46 474 b 3 418 18 446 10 433 b 117 561 -6 446 6 550 l 117 708 b 58 908 117 814 88 874 b 1 950 42 928 22 942 l 21 950 b 228 906 76 950 172 946 b 289 761 271 874 289 826 l 289 463 l 574 463 l 574 846 b 460 875 539 850 501 860 l 586 950 b 767 915 674 901 729 904 b 819 950 788 922 806 933 b 704 854 819 924 781 876 m 274 761 b 219 893 274 819 256 864 b 154 924 201 908 179 918 b 247 761 204 901 247 861 l 247 103 l 274 99 m 574 397 l 289 397 l 289 363 l 574 363 "},"I":{"ha":457,"x_min":0,"x_max":0,"o":"m 296 94 b 360 75 317 89 338 85 l 233 0 b 53 35 146 46 90 46 b 1 0 32 28 14 17 b 117 94 1 24 39 72 l 117 324 b 28 297 74 331 46 315 b 3 260 18 288 10 275 b 117 401 -6 288 3 390 l 117 485 b 28 458 74 492 46 476 b 3 421 18 449 10 436 b 117 564 -6 450 3 553 l 117 711 l 117 844 b 1 874 82 849 44 857 l 128 950 b 308 915 213 901 271 904 b 360 950 329 922 347 933 b 292 872 360 929 338 899 l 296 872 m 281 867 b 246 853 271 863 260 857 l 246 103 b 281 97 257 101 268 101 "},"G":{"ha":1024,"x_min":0,"x_max":0,"o":"m 596 654 l 835 654 l 681 525 l 596 525 m 599 111 b 954 271 792 111 899 224 b 868 135 933 219 906 175 b 553 0 806 68 706 0 b 331 57 475 0 401 19 b 168 221 261 96 207 150 b 128 315 150 253 138 283 b 29 278 74 321 46 300 b 8 232 19 265 13 250 b 111 399 -3 260 -18 372 b 108 439 110 411 108 424 b 111 482 108 454 110 467 b 26 439 67 482 42 460 b 8 397 17 426 11 413 b 128 567 -3 425 -19 549 b 192 697 143 611 163 654 b 492 914 238 758 306 847 b 413 858 465 897 439 879 b 276 721 368 824 314 775 b 217 515 233 660 217 589 b 306 267 217 456 243 350 l 321 246 l 360 278 l 360 724 l 633 950 l 907 876 l 786 776 l 547 842 l 546 117 b 599 111 564 113 582 111 m 532 846 l 489 811 l 489 365 l 331 235 b 432 157 361 201 394 175 b 531 121 458 146 493 131 "},"O":{"ha":1057,"x_min":0,"x_max":0,"o":"m 629 950 b 554 0 1079 832 1082 0 b 124 315 324 0 172 142 b 28 278 72 319 44 300 b 8 232 18 265 11 250 b 108 397 -3 258 -19 372 b 110 482 107 425 106 454 b 25 439 65 482 40 460 b 8 397 17 426 11 413 b 126 565 -4 425 -21 547 b 489 913 169 710 283 842 b 414 863 463 900 438 883 b 282 697 371 828 319 775 b 307 238 208 554 211 358 l 357 278 l 357 722 m 318 225 b 528 131 367 171 433 136 l 528 844 l 486 810 l 486 364 m 554 131 b 571 881 963 131 910 881 l 543 858 l 543 131 "},"J":{"ha":726,"x_min":0,"x_max":0,"o":"m 431 901 b 629 950 482 901 585 917 l 629 815 l 629 813 l 629 475 b 628 133 631 306 626 135 b 400 -135 624 29 571 -135 b 150 25 332 -135 265 -112 b 31 72 90 93 56 93 b 0 17 17 61 7 43 b 21 71 4 36 11 54 b 122 125 38 97 68 125 b 449 -76 243 125 304 -43 l 449 350 b 360 324 406 357 378 342 b 335 286 350 314 342 301 b 449 428 326 313 336 417 l 449 513 b 360 486 406 519 378 504 b 335 449 350 476 342 464 b 449 590 326 475 336 579 l 449 792 b 222 950 293 807 233 922 b 431 901 238 926 353 901 m 500 790 b 467 790 488 789 476 789 l 467 -79 b 500 -82 476 -83 489 -82 "},"L":{"ha":929,"x_min":0,"x_max":0,"o":"m 832 113 l 832 94 l 676 0 b 190 47 476 63 311 63 b 1 0 119 38 57 22 b 117 90 18 38 61 67 l 117 324 b 28 297 74 331 46 315 b 3 258 18 288 10 274 b 117 401 -6 286 6 390 l 117 485 b 28 458 74 492 46 476 b 3 421 18 449 10 436 b 117 564 -6 449 6 553 l 117 711 b 58 910 117 817 88 876 b 1 950 42 929 22 943 l 21 950 b 228 908 76 950 172 949 b 289 764 271 876 289 829 l 289 135 b 786 85 457 161 658 149 m 154 926 b 247 764 204 904 247 864 l 247 128 l 274 132 l 274 764 b 219 896 274 824 256 868 b 154 926 201 911 179 921 "},"K":{"ha":903,"x_min":0,"x_max":0,"o":"m 490 397 b 806 99 590 275 683 -24 b 793 49 804 81 800 64 b 704 0 781 22 754 0 b 357 325 544 0 504 156 b 289 364 335 351 310 360 l 289 96 b 361 74 311 90 335 83 l 235 0 b 53 35 147 46 90 46 b 1 0 31 28 14 17 b 117 94 1 24 39 72 l 117 324 b 28 297 74 331 46 315 b 3 258 18 288 10 274 b 117 401 -6 286 6 390 l 117 485 b 28 458 74 492 46 476 b 3 421 18 449 10 436 b 117 564 -6 449 6 553 l 117 711 b 1 950 117 808 100 906 l 21 950 b 228 908 76 950 172 949 b 289 764 271 876 289 829 l 289 503 l 499 846 b 385 875 464 850 426 860 l 511 950 b 692 915 599 901 654 904 b 744 950 713 922 731 933 b 515 844 744 914 667 833 l 299 493 b 490 397 356 489 431 468 m 247 103 l 274 99 l 274 764 b 219 896 274 824 256 868 b 154 926 201 911 179 921 b 247 779 204 904 247 863 "},"M":{"ha":1229,"x_min":0,"x_max":0,"o":"m 1018 104 b 1132 75 1053 100 1090 90 l 1007 0 b 825 35 919 46 863 46 b 774 0 803 28 786 17 b 889 94 774 26 811 72 l 889 764 l 714 867 l 632 818 l 632 533 l 813 533 l 654 439 l 632 439 l 632 138 l 656 110 l 567 0 l 479 110 l 503 138 l 503 439 l 322 439 l 481 533 l 503 533 l 503 764 l 328 867 l 278 838 b 289 764 285 815 289 790 l 289 97 b 361 75 311 92 335 85 l 235 0 b 53 35 147 46 90 46 b 1 0 31 28 14 17 b 117 96 1 26 39 74 l 117 324 b 28 297 74 331 46 315 b 3 260 18 288 10 275 b 117 403 -6 288 6 392 l 117 486 b 28 460 74 493 46 478 b 3 422 18 450 10 438 b 117 565 -4 449 4 554 l 117 713 b 58 910 117 818 88 876 b 1 950 42 929 22 943 l 21 950 b 228 910 79 950 172 950 b 272 851 247 896 263 876 l 440 951 l 632 838 l 632 835 l 825 951 l 1018 838 m 247 104 l 274 100 l 274 764 b 219 897 274 824 256 868 b 154 928 201 913 179 922 b 247 764 204 904 247 867 "},"N":{"ha":951,"x_min":0,"x_max":0,"o":"m 621 950 b 801 915 708 901 764 904 b 854 950 822 922 840 933 b 682 846 854 919 796 857 l 682 0 l 289 606 l 289 97 b 361 75 311 92 335 85 l 235 0 b 53 35 147 46 90 46 b 1 0 31 28 14 17 b 117 96 1 26 39 74 l 117 324 b 28 297 74 331 46 315 b 3 260 18 288 10 275 b 117 403 -6 288 6 392 l 117 486 b 28 460 74 493 46 478 b 3 422 18 450 10 438 b 117 565 -4 449 4 554 l 117 713 b 58 910 117 818 88 876 b 1 950 42 929 22 943 l 21 950 b 228 910 76 950 172 950 b 265 865 243 899 256 883 b 667 265 321 782 606 358 l 667 844 b 494 876 618 843 561 850 m 247 104 l 274 100 l 274 764 b 219 897 274 824 256 868 b 154 928 201 913 179 922 b 247 764 204 904 247 867 "},"P":{"ha":779,"x_min":0,"x_max":0,"o":"m 682 888 l 682 433 l 553 357 b 289 433 465 408 374 428 l 289 97 b 361 75 311 92 335 85 l 235 0 b 53 35 147 46 90 46 b 1 0 31 28 14 17 b 117 96 1 26 39 74 l 117 324 b 28 297 74 331 46 315 b 3 260 18 288 10 275 b 117 403 -6 288 6 392 l 117 486 b 28 460 74 493 46 478 b 3 422 18 450 10 438 b 117 565 -4 449 4 554 l 117 713 b 58 910 117 818 88 876 b 1 950 42 929 22 943 l 21 950 b 228 910 79 950 172 950 b 288 781 265 881 285 838 l 574 951 m 246 104 l 274 100 l 274 764 b 218 897 274 824 256 868 b 154 928 200 913 176 922 b 246 764 204 906 246 865 m 553 814 l 461 867 l 289 765 l 289 764 l 289 433 b 553 468 400 494 533 472 "},"Q":{"ha":1121,"x_min":0,"x_max":0,"o":"m 860 144 b 975 54 904 79 946 60 b 1024 60 992 50 1008 53 b 806 88 944 -42 868 10 b 554 1 740 33 660 1 b 124 317 324 1 172 143 b 28 279 74 321 44 301 b 8 233 18 267 11 251 b 108 399 -3 260 -19 374 b 110 483 107 426 106 456 b 26 440 65 483 42 461 b 8 399 18 428 13 414 b 126 567 -4 426 -21 549 b 489 914 169 711 283 843 b 414 864 463 901 438 885 b 282 699 371 829 319 776 b 307 239 208 556 211 360 l 357 279 l 357 724 l 629 953 b 860 144 964 869 1049 389 m 318 226 b 528 132 367 172 433 138 l 528 846 l 486 811 l 486 365 m 554 132 b 732 196 628 132 686 156 b 649 249 706 228 675 242 b 603 253 633 253 618 254 b 658 279 621 265 639 274 b 779 253 692 289 735 290 b 571 882 918 465 822 882 l 543 860 l 543 132 "},"R":{"ha":1053,"x_min":0,"x_max":0,"o":"m 642 388 b 956 89 742 265 833 -33 b 943 44 954 72 950 57 b 854 0 931 22 904 0 b 507 315 694 0 660 147 b 357 401 453 375 397 396 b 289 397 333 406 310 404 l 289 96 b 361 74 311 90 335 83 l 235 0 b 53 35 147 46 90 46 b 1 0 31 28 14 17 b 117 94 1 24 39 72 l 117 324 b 28 297 74 331 46 315 b 3 258 18 288 10 274 b 117 401 -6 286 6 390 l 117 485 b 28 458 74 492 46 476 b 3 421 18 449 10 436 b 117 564 -6 449 6 553 l 117 711 b 58 910 117 817 88 876 b 1 950 42 929 22 943 l 21 950 b 228 908 76 950 172 949 b 288 782 265 881 285 839 l 571 951 l 682 889 l 682 628 l 551 551 l 435 483 b 642 388 469 488 560 488 m 289 767 l 289 764 l 289 413 l 551 569 l 551 815 l 461 868 m 247 103 l 274 99 l 274 764 b 219 896 274 824 256 868 b 154 926 201 911 179 921 b 247 764 204 904 247 864 "},"U":{"ha":889,"x_min":0,"x_max":0,"o":"m 828 951 b 717 857 828 926 790 879 l 717 247 l 675 222 l 675 222 l 307 0 l 307 0 l 307 0 l 307 0 l 307 0 l 115 114 l 115 324 b 1 260 31 339 1 260 b 115 403 -4 288 0 393 l 115 486 b 1 422 31 501 1 422 b 115 565 -4 450 0 554 l 115 813 l 92 842 l 181 951 l 268 842 l 244 813 l 244 188 l 419 85 l 544 161 l 544 854 b 469 876 521 858 496 867 l 596 951 b 828 951 767 858 828 951 m 701 256 l 701 853 b 675 847 693 851 685 849 l 675 239 l 701 256 "},"V":{"ha":1061,"x_min":0,"x_max":0,"o":"m 731 950 b 911 915 818 901 874 904 b 964 950 932 922 950 933 b 792 844 964 919 906 856 l 776 843 l 749 843 l 536 -1 l 363 331 b 311 254 325 310 315 281 b 314 210 310 239 310 225 b 325 401 292 228 226 321 l 286 476 b 235 401 249 456 239 428 b 239 357 233 386 235 372 b 249 547 215 376 153 465 l 99 833 b 32 874 75 867 53 874 b 0 865 21 874 10 871 b 68 928 24 896 47 917 b 165 949 94 943 126 953 b 294 846 217 942 260 907 b 592 282 367 725 536 382 l 733 844 b 604 875 694 847 651 857 m 147 935 b 238 860 182 924 214 894 l 575 217 l 586 260 b 282 839 549 336 356 710 b 163 933 249 896 208 928 b 147 935 158 933 153 935 "},"W":{"ha":1406,"x_min":0,"x_max":0,"o":"m 1075 950 b 1256 915 1163 901 1218 904 b 1308 950 1276 922 1294 933 b 1136 844 1308 919 1250 856 l 1121 843 l 1093 843 l 882 1 l 881 -1 l 647 444 l 536 -1 l 363 331 b 310 254 325 310 314 281 b 314 210 308 239 310 225 b 325 401 292 228 226 321 l 286 476 b 235 401 249 456 239 428 b 239 357 233 386 235 372 b 249 547 215 376 153 465 l 99 833 b 32 874 75 867 53 874 b 0 865 21 874 10 871 b 68 928 21 894 44 915 b 164 949 94 943 126 953 b 294 846 215 942 260 907 b 590 282 361 724 540 383 l 704 729 l 713 714 b 714 708 713 713 714 713 b 936 282 794 558 899 357 l 1078 844 b 950 875 1038 847 996 857 m 585 260 b 281 839 547 336 354 708 b 163 933 247 896 208 928 b 147 935 157 933 153 935 b 238 860 182 924 211 894 l 575 217 m 931 260 l 708 686 l 697 640 l 919 217 "},"X":{"ha":950,"x_min":0,"x_max":0,"o":"m 853 83 b 785 22 829 53 807 32 b 689 1 758 7 726 -3 b 558 103 639 7 596 40 b 399 396 529 151 451 299 l 254 103 b 358 75 283 99 318 90 l 232 0 b 51 35 144 46 89 46 b 0 0 31 28 13 17 b 239 104 0 36 81 119 l 264 157 b 175 172 231 181 199 179 b 136 151 161 168 149 161 b 299 226 144 181 196 264 l 325 282 b 236 297 292 308 260 304 b 197 276 222 293 210 286 b 360 351 204 303 257 392 l 389 411 l 167 835 b 100 875 143 868 121 875 b 68 867 89 875 78 872 b 136 929 89 896 113 917 b 232 950 163 944 194 954 b 363 847 283 943 328 908 b 489 614 392 797 439 708 l 601 844 b 494 874 569 850 533 858 l 621 947 b 801 913 708 901 764 901 b 853 947 822 919 840 931 b 618 843 853 913 774 828 l 496 596 l 756 117 b 821 75 778 83 803 75 b 853 83 831 75 842 78 m 463 563 l 481 597 b 349 840 429 696 381 786 b 231 935 317 897 276 929 b 215 936 225 935 221 936 b 306 861 250 925 282 896 m 690 17 b 706 15 694 15 699 15 b 617 90 671 26 640 56 l 425 450 l 407 413 b 572 111 458 313 543 163 b 690 17 604 54 644 22 "},"Y":{"ha":932,"x_min":0,"x_max":0,"o":"m 603 951 b 835 951 774 858 835 951 b 724 857 835 926 797 879 l 724 247 l 682 222 l 682 222 l 314 0 l 314 0 l 314 0 l 314 0 l 314 0 l 136 106 b 403 -110 94 24 -62 -325 b 654 -281 528 -53 782 -19 b 396 -229 654 -281 671 -82 b 122 133 -1 -440 -111 -96 l 122 324 b 8 260 38 339 8 260 b 122 403 3 288 7 393 l 122 486 b 8 422 38 501 8 422 b 122 565 3 450 7 554 l 122 813 l 99 842 l 188 951 l 275 842 l 251 813 l 251 188 l 426 85 l 551 161 l 551 854 b 476 876 528 858 503 867 l 603 951 m 708 256 l 708 853 b 682 847 700 851 692 849 l 682 239 l 708 256 "},"Z":{"ha":854,"x_min":0,"x_max":0,"o":"m 297 174 b 611 85 419 169 529 128 b 742 0 658 60 701 32 b 447 51 639 24 540 42 b 0 0 285 67 106 68 l 68 125 l 182 343 b 96 358 150 367 119 365 b 57 338 82 354 69 347 b 218 411 65 365 119 447 l 247 465 b 158 482 214 492 182 489 b 119 463 144 478 132 472 b 283 535 126 489 183 575 l 429 813 b 236 888 340 819 276 854 b 176 951 213 907 192 928 b 349 918 232 936 289 925 b 706 951 450 907 582 907 l 486 533 l 757 533 l 599 439 l 436 439 m 90 135 b 132 150 106 140 117 146 l 481 813 b 446 813 468 811 457 811 "},".":{"ha":286,"x_min":0,"x_max":0,"o":"m 143 0 l 69 74 l 143 149 l 217 74 "},",":{"ha":283,"x_min":0,"x_max":0,"o":"m 142 121 l 214 53 b 82 -115 196 -24 153 -81 b 101 -93 89 -108 96 -101 b 121 -33 111 -78 121 -60 b 69 49 121 0 90 32 "},";":{"ha":283,"x_min":0,"x_max":0,"o":"m 142 344 l 69 417 l 142 489 l 214 417 m 142 250 l 214 183 b 82 15 196 104 153 49 b 101 36 89 21 96 28 b 121 97 111 51 121 71 b 69 179 121 131 90 163 m 142 344 l 69 417 l 142 489 l 214 417 "},":":{"ha":283,"x_min":0,"x_max":0,"o":"m 69 417 l 142 489 l 214 417 l 142 344 m 69 179 l 142 251 l 214 179 l 142 107 "},"+":{"ha":924,"x_min":0,"x_max":0,"o":""},"S":{"ha":819,"x_min":0,"x_max":0,"o":"m 453 592 l 722 433 l 722 93 l 567 0 b 4 0 363 119 4 0 b 124 158 4 0 61 75 b 0 169 67 214 0 169 b 171 219 11 194 76 274 b 207 268 183 236 196 253 b 79 285 149 331 79 285 b 254 331 90 310 157 390 b 296 385 279 364 296 385 l 18 546 l 19 874 l 149 951 b 618 951 149 951 306 868 b 190 818 618 951 440 782 l 190 644 l 400 522 l 453 592 m 149 619 l 375 489 l 390 510 l 175 636 l 175 819 b 149 825 167 821 157 824 l 149 619 m 592 138 l 592 360 l 392 478 l 69 50 b 592 138 435 264 592 138 "},"!":{"ha":313,"x_min":0,"x_max":0,"o":"m 156 950 l 243 860 l 156 183 l 156 183 l 69 860 m 156 1 l 82 75 l 156 150 l 231 75 "},"?":{"ha":463,"x_min":0,"x_max":0,"o":"m -1 814 b 394 740 136 1063 422 919 b 222 464 372 640 256 540 b 189 182 192 390 190 183 l 153 476 b 264 740 153 569 231 618 b 82 765 286 825 164 889 m 115 72 l 189 147 l 263 72 l 189 -1 "}}}
